<?xml version="1.0" encoding="iso-8859-1"?>
<!-- Generator: Adobe Illustrator 19.0.0, SVG Export Plug-In . SVG Version: 6.00 Build 0)  -->
<svg version="1.1" id="Layer_1" xmlns="http://www.w3.org/2000/svg" xmlns:xlink="http://www.w3.org/1999/xlink" x="0px" y="0px"
	 viewBox="0 0 496 496" style="enable-background:new 0 0 496 496;" xml:space="preserve">
<path style="fill:#51CE00;" d="M496,379.2c0,18.4-14.4,32.8-32.8,32.8H32.8C14.4,412,0,397.6,0,379.2V116.8C0,98.4,14.4,84,32.8,84
	h429.6c18.4,0,32.8,14.4,32.8,32.8v262.4H496z"/>
<path style="fill:#26BC02;" d="M0,118.4C0,98.4,14.4,84,32.8,84h429.6c18.4,0,32.8,17.6,32.8,36v259.2c0,18.4-14.4,32.8-32.8,32.8"
	/>
<g>
	<path style="fill:#02AA29;" d="M120,203.2c0-4-3.2-7.2-7.2-7.2H95.2c-4,0-7.2,3.2-7.2,7.2v129.6c0,4,3.2,7.2,7.2,7.2h17.6
		c4,0,7.2-3.2,7.2-7.2V203.2z"/>
	<path style="fill:#02AA29;" d="M208,252.8c-18.4-7.2-22.4-12-22.4-19.2c0-5.6,4.8-12.8,18.4-12.8c9.6,0,17.6,3.2,21.6,5.6
		c1.6,0.8,4,0.8,5.6,0s3.2-2.4,4-4L240,208c0.8-3.2,0-6.4-3.2-8.8c-4.8-2.4-16-7.2-32.8-7.2c-28.8,0-50.4,18.4-50.4,43.2
		c0,20.8,12.8,35.2,40,44.8c17.6,6.4,20.8,12,20.8,20c0,9.6-8,16-20.8,16c-9.6,0-19.2-3.2-27.2-8c-1.6-0.8-4-1.6-6.4-0.8
		c-2.4,0.8-4,2.4-4,4.8l-4,14.4c-0.8,3.2,0,6.4,3.2,8c8.8,5.6,24,9.6,37.6,9.6c36.8,0,53.6-23.2,53.6-45.6
		C247.2,271.2,226.4,259.2,208,252.8z"/>
	<path style="fill:#02AA29;" d="M337.6,192c-40.8,0-68.8,32-68.8,76.8c0,44,27.2,74.4,67.2,74.4c34.4,0,68.8-24,68.8-77.6
		C404,222.4,376.8,192,337.6,192z M336.8,220c24,0,35.2,24.8,35.2,47.2c0,24-11.2,48-36,48c-24,0-35.2-24-35.2-47.2
		C300.8,246.4,310.4,220,336.8,220z"/>
</g>
<g>
	<path style="fill:#FFFFFF;" d="M120,187.2c0-4-3.2-7.2-7.2-7.2H95.2c-4,0-7.2,3.2-7.2,7.2v129.6c0,4,3.2,7.2,7.2,7.2h17.6
		c4,0,7.2-3.2,7.2-7.2V187.2z"/>
	<path style="fill:#FFFFFF;" d="M208,236.8c-18.4-7.2-22.4-12-22.4-19.2c0-5.6,4.8-12.8,18.4-12.8c9.6,0,17.6,3.2,21.6,5.6
		c1.6,0.8,4,0.8,5.6,0s3.2-2.4,4-4L240,192c0.8-3.2,0-6.4-3.2-8.8c-4.8-2.4-16-7.2-32.8-7.2c-28.8,0-50.4,18.4-50.4,43.2
		c0,20.8,12.8,35.2,40,44.8c17.6,6.4,20.8,12,20.8,20c0,9.6-8,16-20.8,16c-9.6,0-19.2-3.2-27.2-8c-1.6-0.8-4-1.6-6.4-0.8
		c-2.4,0.8-4,2.4-4,4.8l-4,14.4c-0.8,3.2,0,6.4,3.2,8c8.8,5.6,24,9.6,37.6,9.6c36.8,0,53.6-23.2,53.6-45.6
		C247.2,255.2,226.4,243.2,208,236.8z"/>
	<path style="fill:#FFFFFF;" d="M337.6,176c-40.8,0-68.8,32-68.8,76.8c0,44,27.2,74.4,67.2,74.4c34.4,0,68.8-24,68.8-77.6
		C404,206.4,376.8,176,337.6,176z M336.8,204c24,0,35.2,24.8,35.2,47.2c0,24-11.2,48-36,48c-24,0-35.2-24-35.2-47.2
		C300.8,230.4,310.4,204,336.8,204z"/>
</g>
<g>
</g>
<g>
</g>
<g>
</g>
<g>
</g>
<g>
</g>
<g>
</g>
<g>
</g>
<g>
</g>
<g>
</g>
<g>
</g>
<g>
</g>
<g>
</g>
<g>
</g>
<g>
</g>
<g>
</g>
</svg>
